<svg xmlns="http://www.w3.org/2000/svg" viewBox="0 0 300 360">
<defs>
<linearGradient id="g" x1="0" x2="1" y1="0" y2="1">
<stop offset="0" stop-color="#fff7ad"/><stop offset=".45" stop-color="#facc15"/><stop offset="1" stop-color="#b45309"/>
</linearGradient>
<filter id="s" x="-50%" y="-50%" width="200%" height="200%"><feDropShadow dx="0" dy="14" stdDeviation="10" flood-color="#000" flood-opacity=".45"/></filter>
</defs>
<g filter="url(#s)">
<path d="M150 22c37 0 68 24 72 61 23-5 45 7 53 28 10 28-8 65-48 90-17 11-35 17-51 20-5 14-12 27-21 38v34h48c13 0 24 11 24 24v12H73v-12c0-13 11-24 24-24h48v-34c-9-11-16-24-21-38-16-3-34-9-51-20-40-25-58-62-48-90 8-21 30-33 53-28 4-37 35-61 72-61z" fill="url(#g)"/>
<path d="M82 112c-18-8-33-2-37 10-5 15 8 38 38 57 12 8 24 13 35 16-4-25-2-53-36-83zM218 112c18-8 33-2 37 10 5 15-8 38-38 57-12 8-24 13-35 16 4-25 2-53 36-83z" fill="#f59e0b"/>
<path d="M150 45c-32 0-50 20-50 53 0 50 14 103 50 137 36-34 50-87 50-137 0-33-18-53-50-53z" fill="#ffe066"/>
<path d="M111 78c24 8 52 8 78 0-5 61-20 104-39 126-19-22-34-65-39-126z" fill="#facc15"/>
<circle cx="150" cy="112" r="31" fill="#d97706" opacity=".35"/>
<path d="M111 318h78" stroke="#7c2d12" stroke-width="16" stroke-linecap="round"/>
</g>
</svg>